<svg xmlns="http://www.w3.org/2000/svg" viewBox="0 0 100 100">
  <defs>
    <radialGradient id="brassGradient" cx="40%" cy="40%">
      <stop offset="0%" style="stop-color:#d4af37;stop-opacity:1" />
      <stop offset="50%" style="stop-color:#b8860b;stop-opacity:1" />
      <stop offset="100%" style="stop-color:#8b6914;stop-opacity:1" />
    </radialGradient>
  </defs>

  <!-- Outer gear teeth -->
  <path d="M50,10 L55,20 L60,10 L65,22 L70,15 L72,25 L78,20 L77,30 L85,28 L80,37 L88,38 L80,45 L86,50 L80,55 L88,62 L80,63 L85,72 L77,70 L78,80 L72,75 L70,85 L65,78 L60,90 L55,80 L50,90 L45,80 L40,90 L35,78 L30,85 L28,75 L22,80 L23,70 L15,72 L20,63 L12,62 L20,55 L14,50 L20,45 L12,38 L20,37 L15,28 L23,30 L22,20 L28,25 L30,15 L35,22 L40,10 L45,20 Z"
        fill="url(#brassGradient)"
        stroke="#6b5410"
        stroke-width="1.5"/>

  <!-- Inner circle with rivets -->
  <circle cx="50" cy="50" r="18" fill="#2a1f1a" stroke="#b8860b" stroke-width="2"/>

  <!-- Rivets -->
  <circle cx="50" cy="35" r="2.5" fill="#d4af37"/>
  <circle cx="65" cy="50" r="2.5" fill="#d4af37"/>
  <circle cx="50" cy="65" r="2.5" fill="#d4af37"/>
  <circle cx="35" cy="50" r="2.5" fill="#d4af37"/>

  <!-- Center hole -->
  <circle cx="50" cy="50" r="8" fill="#1a1410" stroke="#8b6914" stroke-width="1.5"/>
</svg>
